<?xml version="1.0" encoding="UTF-8" standalone="no"?>
<svg
   xmlns:dc="http://purl.org/dc/elements/1.1/"
   xmlns:cc="http://creativecommons.org/ns#"
   xmlns:rdf="http://www.w3.org/1999/02/22-rdf-syntax-ns#"
   xmlns:svg="http://www.w3.org/2000/svg"
   xmlns="http://www.w3.org/2000/svg"
   xmlns:xlink="http://www.w3.org/1999/xlink"
   xmlns:sodipodi="http://sodipodi.sourceforge.net/DTD/sodipodi-0.dtd"
   xmlns:inkscape="http://www.inkscape.org/namespaces/inkscape"
   sodipodi:docname="card.svg"
   inkscape:version="1.0 (4035a4fb49, 2020-05-01)"
   id="svg8"
   version="1.1"
   viewBox="0 0 70 100"
   height="100mm"
   width="70mm">
  <defs
     id="defs2">
    <linearGradient
       id="linearGradient3084"
       inkscape:collect="always">
      <stop
         id="stop3080"
         offset="0"
         style="stop-color:#ff4646;stop-opacity:1;" />
      <stop
         id="stop3082"
         offset="1"
         style="stop-color:#ff7979;stop-opacity:1" />
    </linearGradient>
    <linearGradient
       inkscape:collect="always"
       id="linearGradient895">
      <stop
         style="stop-color:#ff2323;stop-opacity:1;"
         offset="0"
         id="stop891" />
      <stop
         style="stop-color:#ff8282;stop-opacity:1"
         offset="1"
         id="stop893" />
    </linearGradient>
    <linearGradient
       inkscape:collect="always"
       id="linearGradient881">
      <stop
         style="stop-color:#292929;stop-opacity:1;"
         offset="0"
         id="stop877" />
      <stop
         style="stop-color:#434343;stop-opacity:0.99596769"
         offset="1"
         id="stop879" />
    </linearGradient>
    <linearGradient
       id="linearGradient890"
       inkscape:collect="always">
      <stop
         id="stop886"
         offset="0"
         style="stop-color:#eaeaea;stop-opacity:1;" />
      <stop
         id="stop888"
         offset="1"
         style="stop-color:#eaeaea;stop-opacity:0;" />
    </linearGradient>
    <linearGradient
       gradientTransform="matrix(0.98234351,0,0,0.99999949,-0.02566122,3.2411638e-5)"
       gradientUnits="userSpaceOnUse"
       y2="35.439618"
       x2="-1.2925242"
       y1="35.439618"
       x1="-98.277826"
       id="linearGradient892"
       xlink:href="#linearGradient890"
       inkscape:collect="always" />
    <linearGradient
       gradientTransform="translate(-31.452645,6.2524514)"
       inkscape:collect="always"
       xlink:href="#linearGradient895"
       id="linearGradient1006"
       x1="46.335781"
       y1="31.816822"
       x2="46.561153"
       y2="22.261936"
       gradientUnits="userSpaceOnUse" />
    <linearGradient
       gradientTransform="translate(-47.379867,-5.6517871)"
       inkscape:collect="always"
       xlink:href="#linearGradient881"
       id="linearGradient990"
       x1="62.404675"
       y1="42.820499"
       x2="62.376263"
       y2="31.417999"
       gradientUnits="userSpaceOnUse" />
    <linearGradient
       gradientTransform="translate(-22.877764,-16.701824)"
       inkscape:collect="always"
       xlink:href="#linearGradient881"
       id="linearGradient982"
       x1="36.852676"
       y1="59.507626"
       x2="36.692753"
       y2="47.243484"
       gradientUnits="userSpaceOnUse" />
    <linearGradient
       gradientTransform="translate(-35.435269,-22.773066)"
       inkscape:collect="always"
       xlink:href="#linearGradient895"
       id="linearGradient1014"
       x1="50.447124"
       y1="59.066566"
       x2="50.402363"
       y2="50.836369"
       gradientUnits="userSpaceOnUse" />
    <linearGradient
       gradientTransform="matrix(1.0400017,0,0,1.0352477,0.09654619,-0.10189579)"
       gradientUnits="userSpaceOnUse"
       y2="35.173849"
       x2="-1.5463943"
       y1="35.173849"
       x1="-95.333847"
       id="linearGradient3086"
       xlink:href="#linearGradient3084"
       inkscape:collect="always" />
  </defs>
  <sodipodi:namedview
     inkscape:guide-bbox="true"
     showguides="false"
     inkscape:window-maximized="1"
     inkscape:window-y="-8"
     inkscape:window-x="-8"
     inkscape:window-height="1057"
     inkscape:window-width="1920"
     showgrid="false"
     inkscape:document-rotation="0"
     inkscape:current-layer="layer6"
     inkscape:document-units="mm"
     inkscape:cy="186.78685"
     inkscape:cx="179.92645"
     inkscape:zoom="1.4"
     inkscape:pageshadow="2"
     inkscape:pageopacity="0.0"
     borderopacity="1.0"
     bordercolor="#666666"
     pagecolor="#ffffff"
     id="base">
    <sodipodi:guide
       id="guide900"
       orientation="0,-1"
       position="32.473248,71.936699" />
    <sodipodi:guide
       id="guide902"
       orientation="0,-1"
       position="30.201457,54.697815" />
    <sodipodi:guide
       id="guide904"
       orientation="1,0"
       position="14.967094,66.190405" />
    <sodipodi:guide
       id="guide906"
       orientation="0,-1"
       position="31.844494,63.430804" />
    <sodipodi:guide
       id="guide908"
       orientation="1,0"
       position="8.018086,63.384072" />
    <sodipodi:guide
       id="guide910"
       orientation="1,0"
       position="22.049736,63.384072" />
    <sodipodi:guide
       id="guide912"
       orientation="1,0"
       position="11.358955,63.384072" />
    <sodipodi:guide
       id="guide914"
       orientation="1,0"
       position="18.441598,63.384072" />
    <sodipodi:guide
       id="guide3090"
       orientation="1,0"
       position="34.878674,59.508666" />
  </sodipodi:namedview>
  <metadata
     id="metadata5">
    <rdf:RDF>
      <cc:Work
         rdf:about="">
        <dc:format>image/svg+xml</dc:format>
        <dc:type
           rdf:resource="http://purl.org/dc/dcmitype/StillImage" />
        <dc:title />
      </cc:Work>
    </rdf:RDF>
  </metadata>
  <g
     style="display:none"
     id="layer1"
     inkscape:groupmode="layer"
     inkscape:label="Frente">
    <rect
       inkscape:export-ydpi="26.641232"
       inkscape:export-xdpi="26.641232"
       ry="9.1717787"
       transform="matrix(0.00126304,-0.9999992,0.99998582,0.00532491,0,0)"
       y="2.0782063"
       x="-96.470009"
       height="66.722855"
       width="95.076408"
       id="rect852"
       style="fill:url(#linearGradient892);fill-opacity:1;fill-rule:evenodd;stroke:#a9a9a9;stroke-width:0.198227;stroke-linecap:round;stroke-linejoin:round;stroke-miterlimit:20;stroke-dasharray:none;stroke-opacity:1;paint-order:markers stroke fill" />
  </g>
  <g
     style="display:none"
     inkscape:label="Verso"
     id="layer7"
     inkscape:groupmode="layer">
    <rect
       inkscape:export-ydpi="26"
       inkscape:export-xdpi="26"
       style="display:inline;fill:url(#linearGradient3086);fill-opacity:1;fill-rule:nonzero;stroke:#efefef;stroke-width:4.76166;stroke-linecap:round;stroke-linejoin:round;stroke-miterlimit:20;stroke-dasharray:none;stroke-opacity:1;paint-order:markers stroke fill"
       id="rect852-6"
       width="92.766518"
       height="63.144527"
       x="-96.664528"
       y="4.7394853"
       transform="matrix(0.00122506,-0.99999925,0.99998493,0.00548997,0,0)"
       ry="8.6798983" />
    <g
       inkscape:export-ydpi="26"
       inkscape:export-xdpi="26"
       transform="translate(1.2833942,8.4136178)"
       id="g3120">
      <path
         style="fill:#ffffff;fill-opacity:1;fill-rule:nonzero;stroke:none;stroke-width:1;stroke-linecap:round;stroke-linejoin:round;stroke-miterlimit:20;stroke-dasharray:none;stroke-opacity:1;paint-order:normal"
         id="path3112"
         d="m 28.57682,39.811369 c -0.03511,-0.779295 -0.0384,-1.559731 -0.02535,-2.339562 0.01103,-0.586301 0.05236,-1.171644 0.103045,-1.755685 0.02765,-0.318563 0.05747,-0.637376 0.10474,-0.953783 0.0154,-0.103002 0.03687,-0.205004 0.0553,-0.307507 -0.275074,0.134705 0.210193,-0.32875 0.120975,-0.279995 -0.129669,0.07086 -0.275478,0.135522 -0.362801,0.254725 -0.03053,0.04167 0.05667,0.08684 0.07819,0.1338 0.06709,0.146436 0.104013,0.29746 0.14872,0.45162 0.153548,0.574706 0.272814,1.157787 0.407596,1.736995 0.06675,0.221316 0.104097,0.500374 0.230298,0.698769 0.0093,0.0071 0.01691,0.01704 0.02778,0.02127 0.0075,0.0029 0.01749,0.0035 0.02421,-0.0011 0.156311,-0.103868 0.326314,-0.192204 0.461841,-0.32203 0.04223,-0.04045 0.03429,-0.111818 0.04989,-0.168172 0.02424,-0.08759 0.04667,-0.175675 0.06965,-0.263607 0.03459,-0.132376 0.06871,-0.264877 0.103066,-0.397314 0.173466,-0.645041 0.35502,-1.288341 0.555688,-1.925516 0.0146,-0.02331 0.06691,-0.08493 0.04384,-0.06994 -0.134882,0.08766 -0.297741,0.156075 -0.384654,0.291441 -0.04007,0.0624 0.04338,0.141957 0.05998,0.214233 0.08743,0.380667 0.136298,0.769967 0.191516,1.156126 0.0768,0.539063 0.150916,1.078585 0.272473,1.609665 0.07618,0.289993 0.180621,0.571142 0.290672,0.849659 0.06747,0.187145 0.128166,0.377602 0.166343,0.573061 0.0033,0.01958 0.03801,0.179559 0.07941,0.15549 0.149053,-0.08665 0.295981,-0.176898 0.443973,-0.265348 0.01844,-0.03587 0.01469,-0.02606 0.03144,-0.07522 0.134384,-0.394417 0.279479,-0.784391 0.428022,-1.173734 0.123213,-0.312118 0.199834,-0.511013 0.326895,-0.815562 0.0413,-0.09899 0.07931,-0.199583 0.126915,-0.295703 0.02863,-0.0578 0.162483,-0.185153 0.101232,-0.164923 -0.447786,0.147878 -0.368895,0.174093 -0.250113,0.391755 0.245563,0.676635 0.386591,1.384885 0.534551,2.08761 0.04472,0.181986 0.07319,0.367991 0.122896,0.54882 0.01712,0.06223 0.03391,0.124587 0.07664,0.17358 0.190204,-0.02904 0.214619,-0.02953 0.474856,-0.28566 0.0499,-0.04912 0.03035,-0.136723 0.04427,-0.205346 0.02498,-0.1231 0.04809,-0.246565 0.07238,-0.369803 0.134633,-0.683178 0.04763,-0.228369 0.179057,-0.928814 0.02595,-0.153337 0.05225,-0.30662 0.0779,-0.46001 0.03984,-0.238173 0.09785,-0.582152 0.129932,-0.824624 0.0495,-0.374092 0.08376,-0.750679 0.126897,-1.125562 0.06533,-0.509031 0.129786,-1.019291 0.229814,-1.522954 0.0051,-0.0213 0.03518,-0.07299 0.01524,-0.0639 -0.146907,0.06699 -0.293714,0.142338 -0.416695,0.246955 -0.02291,0.0195 0.01881,0.05735 0.02421,0.08694 0.01185,0.06496 0.01804,0.130832 0.02743,0.196197 0.08299,0.578136 0.0127,0.06606 0.105817,0.761788 0.157853,1.05967 0.287626,2.123128 0.430673,3.184798 0.05425,0.335528 0.10292,0.675722 0.216482,0.997601 0.0026,0.004 0.02524,0.05683 0.04911,0.04333 0.153993,-0.08717 0.319119,-0.161211 0.452718,-0.277247 0.03671,-0.03189 0.02273,-0.09464 0.03069,-0.142613 0.03433,-0.20679 0.07764,-0.597982 0.0983,-0.77063 0.158711,-1.276689 0.365808,-2.546575 0.548447,-3.819896 0.03957,-0.298582 0.08477,-0.596659 0.116928,-0.896202 0.0118,-0.109868 0.01894,-0.215691 0.01238,-0.325686 -0.0021,-0.009 -0.0019,-0.01881 -0.0064,-0.0269 -0.0013,-0.0021 -0.0052,2.64e-4 -0.0073,0.0016 -0.146333,0.09673 -0.31977,0.162383 -0.437547,0.292381 -0.04148,0.04578 0.0024,0.123531 0.0048,0.185253 0.01336,0.328607 0.03021,0.591042 0.04953,0.927198 0.05467,0.679786 0.09983,1.360913 0.17177,2.03921 0.02508,0.236492 0.05664,0.472252 0.0853,0.708337 0.08179,0.67369 0.07135,0.585126 0.15186,1.221221 0.04637,0.360066 0.09091,0.72036 0.134263,1.080797 0,0 0.394716,-0.227889 0.394716,-0.227889 v 0 c -0.06187,-0.351274 -0.1235,-0.702603 -0.179028,-1.054952 -0.201771,-1.315727 -0.359214,-2.638893 -0.406344,-3.970263 -0.0066,-0.44663 -0.01617,-0.546203 0.0035,-0.957799 0.0031,-0.06612 0.08318,-0.198872 0.01699,-0.197843 -0.156379,0.0024 -0.28185,0.135652 -0.422455,0.204142 -0.0031,0.0016 0.0075,-0.0057 0.01,-0.0032 0.0063,0.0062 0.0075,0.01606 0.01125,0.0241 0.01881,0.104513 0.01701,0.205761 0.01119,0.312073 -0.01606,0.29209 -0.05029,0.58301 -0.07851,0.874022 -0.146913,1.277223 -0.331629,2.549914 -0.544743,3.817758 -0.02964,0.167637 -0.100113,0.594196 -0.150199,0.800595 -0.01257,0.05175 -0.100131,0.162104 -0.04775,0.152466 0.151016,-0.02779 0.27042,-0.145548 0.40563,-0.218321 -0.0093,-0.0019 -0.02006,1.74e-4 -0.02776,-0.0052 -0.01212,-0.0085 -0.01894,-0.02267 -0.02842,-0.03403 -0.131697,-0.309898 -0.192553,-0.644292 -0.260356,-0.972269 -0.183927,-1.053685 -0.336476,-2.113754 -0.442065,-3.17822 -0.01712,-0.185732 -0.05449,-0.577332 -0.06941,-0.782812 -0.005,-0.06845 -0.0058,-0.137168 -0.01116,-0.205592 -0.0024,-0.03145 0.01759,-0.103992 -0.01225,-0.09383 -0.442428,0.150521 -0.41811,0.09397 -0.448794,0.307829 -0.06409,0.500206 -0.122071,1.0012 -0.191341,1.500744 -0.04165,0.374118 -0.07599,0.749384 -0.122365,1.122944 -0.03426,0.275998 -0.07594,0.543989 -0.119821,0.818788 -0.02442,0.152921 -0.05013,0.305633 -0.0752,0.458448 -0.08137,0.423569 -0.09529,0.520018 -0.193532,0.937173 -0.03026,0.128498 -0.06163,0.256792 -0.09696,0.383993 -0.02069,0.07449 -0.148304,0.219114 -0.07101,0.220786 0.145066,0.0031 0.573484,-0.252798 0.38186,-0.208965 -0.04869,-0.0442 -0.07054,-0.102756 -0.0919,-0.164764 -0.06032,-0.175101 -0.09461,-0.358084 -0.145323,-0.535874 -0.170256,-0.699725 -0.331449,-1.401789 -0.517128,-2.097669 -0.130471,-0.300009 -0.05345,-0.267036 -0.565092,0.0789 -0.04803,0.03247 -0.05816,0.100579 -0.08162,0.153601 -0.04178,0.09443 -0.07619,0.191955 -0.113798,0.288126 -0.04852,0.124103 -0.09639,0.24846 -0.144581,0.372689 -0.05701,0.145452 -0.114012,0.290905 -0.171016,0.436354 -0.173583,0.43012 -0.341993,0.863515 -0.52768,1.288343 0.13952,-0.07755 0.280048,-0.153296 0.418558,-0.232634 0.0049,-0.0028 -0.01156,0.0048 -0.0167,0.0024 -0.0082,-0.0037 -0.01389,-0.01161 -0.01931,-0.01873 -0.02972,-0.03899 -0.04024,-0.08799 -0.0516,-0.134458 -0.04168,-0.1939 -0.108871,-0.381291 -0.17562,-0.567706 -0.109824,-0.278133 -0.220869,-0.556268 -0.296762,-0.84614 -0.132194,-0.52351 -0.23223,-1.054132 -0.30879,-1.588699 -0.05411,-0.390879 -0.106021,-0.782174 -0.162867,-1.172668 -0.01109,-0.07624 0.04148,-0.223715 -0.03543,-0.228409 -0.373388,-0.02278 -0.405284,0.07807 -0.492858,0.259818 -0.166568,0.636434 -0.338847,1.271376 -0.518739,1.904185 -0.0078,0.02585 -0.177359,0.588783 -0.207966,0.681273 -0.01968,0.05945 -0.126955,0.175213 -0.06434,0.176517 0.141724,0.003 0.261189,-0.110387 0.389922,-0.169736 0.0078,-0.0036 -0.01757,0.0045 -0.02577,0.0019 -0.01151,-0.0037 -0.02024,-0.01318 -0.03037,-0.01979 -0.139623,-0.184148 -0.184475,-0.469019 -0.257365,-0.683144 -0.148887,-0.575519 -0.278884,-1.155573 -0.410747,-1.735177 -0.04066,-0.153276 -0.07808,-0.311221 -0.133665,-0.460309 -0.01812,-0.04864 -0.01289,-0.150447 -0.0641,-0.141933 -0.128677,0.02141 -0.459803,0.117197 -0.527682,0.31401 -0.02024,0.05871 -0.02941,0.120669 -0.04411,0.181002 -0.05194,0.41163 -0.08513,0.823039 -0.117448,1.236702 -0.04574,0.585491 -0.09795,1.171022 -0.108075,1.75859 -0.0049,0.186764 -0.01146,0.373491 -0.01466,0.56029 -0.01037,0.607422 -0.0028,1.215445 -0.03467,1.822383 0,0 0.425685,-0.245771 0.425685,-0.245771 z" />
      <path
         style="fill:#ffffff;fill-opacity:1;fill-rule:nonzero;stroke:none;stroke-width:1;stroke-linecap:round;stroke-linejoin:round;stroke-miterlimit:20;stroke-dasharray:none;stroke-opacity:1;paint-order:normal"
         id="path3114"
         d="m 32.219505,35.274011 c 0.457222,0.03189 0.916242,0.0421 1.374434,0.05447 0.512723,0.01228 1.027213,0.0037 1.539034,-0.03079 0.250306,-0.01685 0.500033,-0.04148 0.749876,-0.06419 0.721659,-0.06558 0.975225,-0.09435 1.699409,-0.169646 0.999561,-0.113496 0.520734,-0.05803 1.436542,-0.165872 0,0 0.33456,-0.193157 0.33456,-0.193157 v 0 c -0.937125,0.121902 -0.448842,0.06073 -1.465006,0.182306 -1.299041,0.132458 -2.604037,0.27894 -3.911941,0.220522 -0.442463,-0.0163 -0.88768,-0.02545 -1.327111,-0.0818 0,0 -0.429797,0.248144 -0.429797,0.248144 z" />
    </g>
    <path
       inkscape:export-ydpi="26"
       inkscape:export-xdpi="26"
       d="m 43.627275,45.376137 a 8.8318233,4.7848477 0 0 1 -8.797697,4.784812 8.8318233,4.7848477 0 0 1 -8.865686,-4.747835 8.8318233,4.7848477 0 0 1 8.729184,-4.821503 8.8318233,4.7848477 0 0 1 8.933145,4.710574"
       sodipodi:arc-type="arc"
       sodipodi:open="true"
       sodipodi:end="6.2677293"
       sodipodi:start="0"
       sodipodi:ry="4.7848477"
       sodipodi:rx="8.8318233"
       sodipodi:cy="45.376137"
       sodipodi:cx="34.795452"
       sodipodi:type="arc"
       id="path3116"
       style="fill:none;fill-opacity:1;fill-rule:nonzero;stroke:#efefef;stroke-width:0.35093;stroke-linecap:round;stroke-linejoin:round;stroke-miterlimit:20;stroke-dasharray:none;stroke-opacity:1;paint-order:normal" />
  </g>
  <g
     style="display:none"
     inkscape:label="Copas"
     id="layer3"
     inkscape:groupmode="layer">
    <path
       inkscape:export-ydpi="36.134453"
       inkscape:export-xdpi="36.134453"
       sodipodi:nodetypes="ascsaca"
       id="path918"
       d="m 8.0180849,33.809596 c 0.1781,-1.630925 1.043402,-3.39894 3.6749571,-3.274052 2.486804,0.118018 3.274052,3.274051 3.274052,3.274051 0,0 1.047835,-3.277525 3.808592,-3.274051 2.58221,0.0032 3.157754,1.735037 3.274051,3.274052 0.300084,3.971153 -7.082643,9.621703 -7.082643,9.621703 0,0 -7.3784831,-5.688852 -6.9490091,-9.621703 z"
       style="display:inline;fill:url(#linearGradient1006);fill-opacity:1;stroke:none;stroke-width:0.264583px;stroke-linecap:butt;stroke-linejoin:miter;stroke-opacity:1" />
  </g>
  <g
     style="display:none"
     inkscape:label="Espadas"
     id="layer4"
     inkscape:groupmode="layer">
    <path
       inkscape:export-ydpi="36"
       inkscape:export-xdpi="36"
       style="display:inline;fill:url(#linearGradient990);fill-opacity:1;stroke:none;stroke-width:0.264583px;stroke-linecap:butt;stroke-linejoin:miter;stroke-opacity:1"
       d="m 14.055953,38.738919 c 0,0 -0.696466,3.319017 -2.504913,3.387962 -2.7704781,0.105621 -3.2088821,-1.638549 -3.3717631,-3.173334 -0.420286,-3.960236 6.7878171,-9.831912 6.7878171,-9.831912 0,0 7.547486,5.462644 7.237389,9.406702 -0.128596,1.635575 -0.808815,3.030963 -3.574053,3.383915 -2.463161,0.314395 -2.402912,-3.206742 -2.402912,-3.206742 l -0.05926,3.528793 0.809363,1.724724 -3.693255,-0.02506 1.02056,-1.762307 z"
       id="path918-9"
       sodipodi:nodetypes="csacascccccc" />
  </g>
  <g
     style="display:none"
     inkscape:label="Paus"
     id="layer5"
     inkscape:groupmode="layer">
    <path
       inkscape:export-ydpi="36"
       inkscape:export-xdpi="36"
       style="display:inline;fill:url(#linearGradient982);fill-opacity:1;stroke:none;stroke-width:0.264583px;stroke-linecap:butt;stroke-linejoin:miter;stroke-opacity:1"
       d="m 15.935666,44.66435 -1.133929,-2.142031 -0.05704,-2.529106 c 0,0 0.991555,1.418401 2.647254,1.702285 1.788218,0.306605 3.608872,-0.785644 3.608138,-3.378163 -6.35e-4,-2.216018 -1.059106,-3.014537 -2.899433,-3.094678 -1.448401,-0.06307 -3.133562,1.346539 -3.133562,1.346539 0,0 2.042256,-1.428776 2.078869,-3.401785 0.04051,-2.183173 -0.761285,-3.160792 -3.128516,-3.118305 -2.128741,0.03821 -2.910148,1.052442 -2.824609,3.189174 0.07894,1.971787 1.923984,3.295828 1.923984,3.295828 0,0 -1.508116,-1.543007 -3.1563611,-1.429569 -2.050277,0.141108 -2.892068,1.400663 -2.892022,3.283667 4.8e-5,1.942098 1.710288,3.328404 3.2227511,3.212798 1.612551,-0.123256 2.815152,-1.464662 2.815152,-1.464662 v 2.456848 l -1.063054,2.071157 z"
       id="path958"
       sodipodi:nodetypes="cccssscssscssscccc" />
  </g>
  <g
     style="display:inline"
     inkscape:label="Ouros"
     id="layer6"
     inkscape:groupmode="layer">
    <path
       inkscape:export-ydpi="35.862316"
       inkscape:export-xdpi="35.862316"
       style="display:inline;fill:url(#linearGradient1014);fill-opacity:1;stroke:none;stroke-width:0.264583px;stroke-linecap:butt;stroke-linejoin:miter;stroke-opacity:1"
       d="m 14.967094,45.302184 -3.608139,-8.732989 3.608139,-8.505895 3.474504,8.505896 -3.474504,8.732988"
       id="path954"
       sodipodi:nodetypes="ccccc" />
  </g>
</svg>
